<svg height="512pt" viewBox="-90 0 512 512.001" width="512pt" xmlns="http://www.w3.org/2000/svg"><path d="m226.210938 440.402344c-7.410157-8.761719-8.003907-18.914063-3.980469-28.277344 1.476562-3.433594-.953125-7.265625-4.691407-7.265625h-2.144531c-11.511719 0-21.554687 6.292969-26.871093 15.628906 0 0-5.578126 7.808594-6.351563 19.398438-.773437 11.589843 44.039063.515625 44.039063.515625zm0 0" fill="#6a6"/><path d="m103.617188 439.371094c7.410156-8.761719 8.003906-17.882813 3.980468-27.246094-1.476562-3.433594.957032-7.265625 4.695313-7.265625h2.140625c11.511718 0 21.554687 6.292969 26.871094 15.628906 0 0 4.679687 11.027344 3.136718 20.042969-1.546875 9.015625-46.949218 11.234375-40.824218-1.160156zm0 0" fill="#6a6"/><path d="m146.886719 403.832031c0 19.910157-16.144531 36.054688-36.054688 36.054688h-15.28125l70.394531 25.242187 70.394532-25.242187h-17.339844c-19.914062 0-36.054688-16.140625-36.054688-36.054688v-240.890625h-36.058593zm0 0" fill="#d19f62"/><path d="m267.414062 486.246094v-36.054688c0-5.691406-4.609374-10.304687-10.300781-10.304687h-182.335937c-5.691406 0-10.304688 4.613281-10.304688 10.304687v36.054688zm0 0" fill="#96bc5e"/><path d="m267.417969 450.1875v36.058594h-30.90625v-36.058594c0-5.683594-4.613281-10.300781-10.300781-10.300781h30.90625c5.683593 0 10.300781 4.617187 10.300781 10.300781zm0 0" fill="#85993d"/><path d="m278.027344 465.644531c9.886718 0 17.226562 9.152344 15.082031 18.804688l-3.433594 15.449219c-1.570312 7.070312-7.839843 12.101562-15.082031 12.101562h-217.296875c-7.242187 0-13.511719-5.03125-15.085937-12.101562l-3.433594-15.449219c-2.144532-9.652344 5.199218-18.804688 15.085937-18.804688zm0 0" fill="#9e7f56"/><path d="m293.109375 484.441406-3.429687 15.453125c-1.578126 7.078125-7.839844 12.105469-15.082032 12.105469h-30.90625c7.242188 0 13.507813-5.027344 15.082032-12.105469l3.03125-13.648437.402343-1.804688c2.140625-9.640625-5.203125-18.800781-15.082031-18.800781h30.902344c9.878906 0 17.226562 9.160156 15.082031 18.800781zm0 0" fill="#87613c"/><path d="m224.148438 265.785156h-25.753907c-8.535156 0-15.453125-6.917968-15.453125-15.449218 0-8.535157 6.917969-15.453126 15.453125-15.453126h25.753907c8.535156 0 15.453124 6.917969 15.453124 15.453126 0 8.53125-6.917968 15.449218-15.453124 15.449218zm0 0" fill="#92d37a"/><path d="m239.601562 250.335938c0 4.261718-1.730468 8.125-4.53125 10.917968-2.792968 2.800782-6.65625 4.53125-10.921874 4.53125h-25.753907c-.875 0-1.742187-.070312-2.574219-.214844 3.234376-.546874 6.128907-2.089843 8.34375-4.316406 2.800782-2.789062 4.535157-6.652344 4.535157-10.917968 0-7.65625-5.574219-14.011719-12.878907-15.238282.835938-.144531 1.699219-.214844 2.574219-.214844h25.757813c8.527344 0 15.449218 6.921876 15.449218 15.453126zm0 0" fill="#70ba4d"/><path d="m224.148438 296.691406h-25.753907c-8.535156 0-15.453125-6.917968-15.453125-15.453125 0-8.535156 6.917969-15.453125 15.453125-15.453125h25.753907c8.535156 0 15.453124 6.917969 15.453124 15.453125 0 8.535157-6.917968 15.453125-15.453124 15.453125zm0 0" fill="#e8ba5d"/><path d="m239.601562 281.238281c0 4.265625-1.730468 8.128907-4.53125 10.921875-2.792968 2.800782-6.65625 4.53125-10.921874 4.53125h-25.753907c-.875 0-1.742187-.070312-2.574219-.214844 3.234376-.546874 6.128907-2.089843 8.34375-4.316406 2.800782-2.792968 4.535157-6.65625 4.535157-10.921875 0-7.652343-5.574219-14.007812-12.878907-15.234375.835938-.144531 1.699219-.214844 2.574219-.214844h25.757813c8.527344-.003906 15.449218 6.921876 15.449218 15.449219zm0 0" fill="#d69941"/><path d="m224.148438 327.597656h-25.753907c-8.535156 0-15.453125-6.917968-15.453125-15.453125 0-8.535156 6.917969-15.453125 15.453125-15.453125h25.753907c8.535156 0 15.453124 6.917969 15.453124 15.453125 0 8.535157-6.917968 15.453125-15.453124 15.453125zm0 0" fill="#e8ba5d"/><path d="m239.601562 312.144531c0 4.265625-1.730468 8.128907-4.53125 10.921875-2.792968 2.800782-6.65625 4.53125-10.921874 4.53125h-25.753907c-.875 0-1.742187-.070312-2.574219-.214844 3.234376-.546874 6.128907-2.09375 8.34375-4.316406 2.800782-2.792968 4.535157-6.65625 4.535157-10.921875 0-7.652343-5.574219-14.007812-12.878907-15.234375.835938-.144531 1.699219-.214844 2.574219-.214844h25.757813c8.527344-.003906 15.449218 6.917969 15.449218 15.449219zm0 0" fill="#d69941"/><path d="m131.433594 265.785156h-25.753906c-8.535157 0-15.453126-6.917968-15.453126-15.449218 0-8.535157 6.917969-15.453126 15.453126-15.453126h25.753906c8.535156 0 15.453125 6.917969 15.453125 15.453126 0 8.53125-6.917969 15.449218-15.453125 15.449218zm0 0" fill="#92d37a"/><path d="m146.886719 250.335938c0 4.261718-1.730469 8.125-4.535157 10.917968-2.789062 2.800782-6.652343 4.53125-10.917968 4.53125h-25.753906c-.878907 0-1.742188-.070312-2.578126-.214844 3.238282-.546874 6.132813-2.089843 8.347657-4.316406 2.800781-2.789062 4.53125-6.652344 4.53125-10.917968 0-7.65625-5.570313-14.011719-12.875-15.238282.832031-.144531 1.699219-.214844 2.574219-.214844h25.753906c8.53125 0 15.453125 6.921876 15.453125 15.453126zm0 0" fill="#70ba4d"/><path d="m131.433594 296.691406h-25.753906c-8.535157 0-15.453126-6.917968-15.453126-15.453125 0-8.535156 6.917969-15.453125 15.453126-15.453125h25.753906c8.535156 0 15.453125 6.917969 15.453125 15.453125 0 8.535157-6.917969 15.453125-15.453125 15.453125zm0 0" fill="#e8ba5d"/><path d="m146.886719 281.238281c0 4.265625-1.730469 8.128907-4.535157 10.921875-2.789062 2.800782-6.652343 4.53125-10.917968 4.53125h-25.753906c-.878907 0-1.742188-.070312-2.578126-.214844 3.238282-.546874 6.132813-2.089843 8.347657-4.316406 2.800781-2.792968 4.53125-6.65625 4.53125-10.921875 0-7.652343-5.570313-14.007812-12.875-15.234375.832031-.144531 1.699219-.214844 2.574219-.214844h25.753906c8.53125-.003906 15.453125 6.921876 15.453125 15.449219zm0 0" fill="#d69941"/><path d="m131.433594 327.597656h-25.753906c-8.535157 0-15.453126-6.917968-15.453126-15.453125 0-8.535156 6.917969-15.453125 15.453126-15.453125h25.753906c8.535156 0 15.453125 6.917969 15.453125 15.453125 0 8.535157-6.917969 15.453125-15.453125 15.453125zm0 0" fill="#e8ba5d"/><path d="m146.886719 312.144531c0 4.265625-1.730469 8.128907-4.535157 10.921875-2.789062 2.800782-6.652343 4.53125-10.917968 4.53125h-25.753906c-.878907 0-1.742188-.070312-2.578126-.214844 3.238282-.546874 6.132813-2.09375 8.347657-4.316406 2.800781-2.792968 4.53125-6.65625 4.53125-10.921875 0-7.652343-5.570313-14.007812-12.875-15.234375.832031-.144531 1.699219-.214844 2.574219-.214844h25.753906c8.53125-.003906 15.453125 6.917969 15.453125 15.449219zm0 0" fill="#d69941"/><path d="m308.625 218.914062c-4.265625 0-7.726562-3.460937-7.726562-7.726562v-36.226562c0-4.269532 3.460937-7.726563 7.726562-7.726563s7.726562 3.457031 7.726562 7.726563v36.226562c0 4.265625-3.460937 7.726562-7.726562 7.726562zm0 0" fill="#68a044"/><path d="m23.265625 218.914062c-4.269531 0-7.726563-3.460937-7.726563-7.726562v-40.347656c0-4.269532 3.457032-7.726563 7.726563-7.726563 4.265625 0 7.726563 3.457031 7.726563 7.726563v40.347656c0 4.265625-3.460938 7.726562-7.726563 7.726562zm0 0" fill="#68a044"/><path d="m308.625 264.757812c-8.535156 0-15.453125-6.917968-15.453125-15.453124v-25.753907c0-8.535156 6.917969-15.453125 15.453125-15.453125s15.453125 6.917969 15.453125 15.453125v25.753907c0 8.535156-6.917969 15.453124-15.453125 15.453124zm0 0" fill="#e2a05d"/><path d="m23.265625 264.757812c8.53125 0 15.453125-6.917968 15.453125-15.453124v-25.753907c0-8.535156-6.917969-15.453125-15.453125-15.453125s-15.453125 6.917969-15.453125 15.453125v25.753907c0 8.535156 6.917969 15.453124 15.453125 15.453124zm0 0" fill="#e2a05d"/><path d="m316.144531 122.617188c9.410157-5.46875 15.746094-15.65625 15.746094-27.324219 0-17.449219-14.144531-31.59375-31.59375-31.59375-3.070313 0-6.039063.449219-8.847656 1.265625 1.71875-4.085938 2.667969-8.574219 2.667969-13.28125 0-18.964844-15.375-34.339844-34.339844-34.339844-11.011719 0-20.804688 5.1875-27.089844 13.246094-1.464844-17.136719-15.832031-30.589844-33.347656-30.589844-17.722656 0-32.222656 13.773438-33.394532 31.203125-1.171874-17.429687-15.671874-31.203125-33.394531-31.203125-17.515625 0-31.882812 13.453125-33.347656 30.589844-6.285156-8.058594-16.078125-13.246094-27.089844-13.246094-18.964843 0-34.339843 15.371094-34.339843 34.339844 0 4.707031.949218 9.195312 2.667968 13.28125-2.808594-.816406-5.777344-1.265625-8.847656-1.265625-17.449219 0-31.59375 14.144531-31.59375 31.59375 0 11.671875 6.332031 21.855469 15.746094 27.324219-9.214844 5.433593-15.402344 15.457031-15.402344 26.929687 0 17.257813 13.992188 31.25 31.25 31.25 8.945312 0 17.007812-3.765625 22.703125-9.789063 1.789063 15.652344 15.074219 27.816407 31.210937 27.816407 10.171876 0 19.214844-4.839844 24.957032-12.339844 6.390625 7.746094 16.066406 12.683594 26.894531 12.683594 11.835937 0 22.289063-5.90625 28.585937-14.925781 6.300782 9.019531 16.753907 14.925781 28.589844 14.925781 10.828125 0 20.5-4.9375 26.894532-12.683594 5.742187 7.5 14.78125 12.339844 24.957031 12.339844 16.132812 0 29.417969-12.164063 31.207031-27.816407 5.695312 6.023438 13.757812 9.789063 22.703125 9.789063 17.257813 0 31.25-13.992187 31.25-31.25 0-11.472656-6.1875-21.496094-15.402344-26.929687zm0 0" fill="#7fbf62"/><g fill="#68a044"><path d="m228.660156 17.339844c-10.929687.058594-20.632812 5.242187-26.875 13.246094-1-11.683594-7.996094-21.644532-17.894531-26.804688 4.625-2.421875 9.878906-3.78125 15.453125-3.78125 12.628906 0 23.621094 7.003906 29.316406 17.339844zm0 0"/><path d="m331.546875 149.550781c0 17.257813-13.992187 31.246094-31.246094 31.246094-5.625 0-10.898437-1.484375-15.453125-4.089844 9.4375-5.367187 15.792969-15.527343 15.792969-27.15625 0-11.476562-6.191406-21.5-15.398437-26.929687 9.414062-5.46875 15.738281-15.660156 15.738281-27.332032 0-17.449218-14.144531-31.59375-31.582031-31.59375-3.082032 0-6.050782.453126-8.851563 1.265626 1.710937-4.089844 2.667969-8.570313 2.667969-13.277344 0-13.40625-7.683594-25.023438-18.894532-30.671875 4.648438-2.359375 9.890626-3.675781 15.453126-3.675781 18.96875 0 34.347656 15.378906 34.347656 34.34375 0 4.710937-.957032 9.191406-2.667969 13.28125 2.800781-.816407 5.769531-1.269532 8.847656-1.269532 17.441407 0 31.585938 14.144532 31.585938 31.597656 0 11.671876-6.324219 21.859376-15.742188 27.332032 9.210938 5.429687 15.402344 15.453125 15.402344 26.929687zm0 0"/><path d="m275.039062 180.269531c-4.902343 10.929688-15.894531 18.554688-28.660156 18.554688-5.613281 0-10.886718-1.472657-15.453125-4.058594 8.542969-4.839844 14.601563-13.554687 15.765625-23.753906 5.695313 6.023437 13.75 9.785156 22.703125 9.785156 1.925781 0 3.8125-.175781 5.644531-.527344zm0 0"/></g></svg>